# xmcd
#
# Track frame offsets:
#	150
#	10765
#	26245
#	48695
#	74845
#	97860
#	118645
#	133370
#	156145
#	180245
#
# Disc length: 2651 seconds
#
# Revision: 2
# Processed by: cddbd v1.5.1PL2 Copyright (c) Steve Scherf et al.
# Submitted via: EasyCDDAExtractor 8.0.2.1
#
DISCID=880a590a
DTITLE=Dio - Civic Center Providence RI 18-06-86 Disc 1
DYEAR=1986
DGENRE=Hard Rock
TTITLE0=Intro
TTITLE1=King Of Rock and Roll
TTITLE2=Like The Beat Of A Heart
TTITLE3=Don't Talk To Strangers
TTITLE4=Time To Burn
TTITLE5=The Last In Line
TTITLE6=Holy Diver
TTITLE7=Drum Solo
TTITLE8=Heaven and Hell
TTITLE9=Keyboard Solo
EXTD=
EXTT0=
EXTT1=
EXTT2=
EXTT3=
EXTT4=
EXTT5=
EXTT6=
EXTT7=
EXTT8=
EXTT9=
PLAYORDER=
